# xmcd
#
# Track frame offsets: 
#        150
#        14161
#        31961
#        47969
#        62192
#        77085
#        93189
#        110640
#        128340
#        145045
#
# Disc length: 2098 seconds
#
# Revision: 0
# Processed by: cddbd v1.5.2PL0 Copyright (c) Steve Scherf et al.
# Submitted via: ExactAudioCopy v0.99pb5
#
DISCID=8208300a
DTITLE=Kate Ellis - Carve Me Out
DYEAR=2017
DGENRE=Country
TTITLE0=Dont Lie To Me
TTITLE1=Ones You Love The Most
TTITLE2=I Believe
TTITLE3=Night Before The Dawn
TTITLE4=Paper Scissors Rock
TTITLE5=Inside
TTITLE6=Holding The Whole Thing
TTITLE7=Going Against The Grain
TTITLE8=What I Cant Have
TTITLE9=Carve Me Out
EXTD=
EXTT0=
EXTT1=
EXTT2=
EXTT3=
EXTT4=
EXTT5=
EXTT6=
EXTT7=
EXTT8=
EXTT9=
PLAYORDER=
